# xmcd CD database file
#
# Track frame offsets:
#	150
#	15050
#	30350
#	43860
#	57135
#	70600
#	83900
#	95585
#	107850
#	120525
#	132185
#	143125
#	155210
#	166350
#	181725
#	196110
#	210162
#	224037
#	239425
#	253625
#	266700
#	280100
#	293850
#	307162
#	320575
#
# Disc length: 4443 seconds
#
# Revision: 0
# Processed by: cddbd v1.5.1PL0 Copyright (c) Steve Scherf et al.
# Submitted via: CDex 1.51
#
DISCID=69115919
DTITLE=W.E. 'Buddy' Burton and Ed 'Fats' Hudson - Chicago Southside - Blues and Jazz (1928-1936)
DYEAR=1900
DGENRE=Blues
TTITLE0=Ham Fatchet Blues Pt. 1
TTITLE1=Ham Fatchet Blues Pt. 2
TTITLE2=My Baby
TTITLE3=Satisfied Blues
TTITLE4=Time Enough
TTITLE5=Dustin' The Keys
TTITLE6=Block and Tackle Blues
TTITLE7=Silvery Moon
TTITLE8=It's No-One But You
TTITLE9=Five O'Clock Stomp
TTITLE10=Kentucky Stomp
TTITLE11=South Side Stomp
TTITLE12=St. Louis Man
TTITLE13=St. Louis Blues
TTITLE14=Fuzzy Wuzzy
TTITLE15=Do Do Lady
TTITLE16=Roll That Jelly
TTITLE17=Crossin' Beale Street
TTITLE18=Memphis Rhythm
TTITLE19=Fat's Hard Luck Blues No. 1
TTITLE20=Fat's Hard Luck Blues No. 2
TTITLE21=Block and Tackle
TTITLE22=The Trombone Slide
TTITLE23=New Block and Tackle
TTITLE24=Electric Man
EXTD=
EXTT0=
EXTT1=
EXTT2=
EXTT3=
EXTT4=
EXTT5=
EXTT6=
EXTT7=
EXTT8=
EXTT9=
EXTT10=
EXTT11=
EXTT12=
EXTT13=
EXTT14=
EXTT15=
EXTT16=
EXTT17=
EXTT18=
EXTT19=
EXTT20=
EXTT21=
EXTT22=
EXTT23=
EXTT24=
PLAYORDER=
